# xmcd
#
# Track frame offsets:
#	150
#	20268
#	33871
#	50497
#	64249
#	80789
#	98855
#	114405
#	129593
#	144386
#	163773
#	179475
#	195842
#	213963
#	224496
#
# Disc length: 3329 seconds
#
# Revision: 2
# Processed by: cddbd v1.5.2PL0 Copyright (c) Steve Scherf et al.
# Submitted via: audiograbber 1.83.01
#
DISCID=d40cff0f
DTITLE=Virgis Stakenas - Country Mama [CD2]
DYEAR=2001
DGENRE=Country
TTITLE0=Kelelis Tolimas
TTITLE1=Pasilagiluze
TTITLE2=Ledu Pardaveja
TTITLE3=Nebelydeki
TTITLE4=Pikciurna
TTITLE5=Mergaite
TTITLE6=Nidos Berzai
TTITLE7=Palaimos Valanda
TTITLE8=Raudoni Guzikai
TTITLE9=Bambeklis
TTITLE10=Svyturys
TTITLE11=Kaledu Ryta
TTITLE12=Kaledu Zvaigzde
TTITLE13=Prima Balerina (Remix)
TTITLE14=Plauk, Laive, Plauk!
EXTD=
EXTT0=
EXTT1=
EXTT2=
EXTT3=
EXTT4=
EXTT5=
EXTT6=
EXTT7=
EXTT8=
EXTT9=
EXTT10=
EXTT11=
EXTT12=
EXTT13=
EXTT14=
PLAYORDER=
